<svg width="296" height="490" viewBox="0 0 296 490" fill="none" xmlns="http://www.w3.org/2000/svg">
<path d="M295.15 451.4V38C295.15 17.1 278.15 0 257.15 0H38.3501C17.4501 0 0.350098 17 0.350098 38V451.5C0.350098 472.4 17.3501 489.5 38.3501 489.5H257.15C278.05 489.4 295.15 472.4 295.15 451.4ZM24.8501 88.1H270.55V366.3H24.8501V88.1V88.1ZM38.3501 24.5H257.15C264.55 24.5 270.65 30.5 270.65 38V63.6H24.8501V38C24.8501 30.5 30.9501 24.5 38.3501 24.5ZM24.8501 451.4V390.7H270.55V451.4C270.55 458.8 264.55 464.9 257.05 464.9H38.3501C30.9501 464.9 24.8501 458.9 24.8501 451.4Z" fill="#B44CCF"/>
<path d="M172.55 416.6H122.85C116.05 416.6 110.55 422.1 110.55 428.9C110.55 435.7 116.05 441.2 122.85 441.2H172.55C179.35 441.2 184.85 435.7 184.85 428.9C184.85 422.1 179.35 416.6 172.55 416.6Z" fill="#B44CCF"/>
</svg>
