<svg width="474" height="474" viewBox="0 0 474 474" fill="none" xmlns="http://www.w3.org/2000/svg">
<path d="M437.5 59.3H36.5C16.4 59.3 0 75.7001 0 95.8001V378.2C0 398.3 16.4 414.7 36.5 414.7H437.5C457.6 414.7 474 398.3 474 378.2V95.8001C474 75.7001 457.6 59.3 437.5 59.3ZM432.2 86.3001L239.5 251.1L46.8 86.3001H432.2ZM447 378.2C447 383.4 442.7 387.7 437.5 387.7H36.5C31.3 387.7 27 383.4 27 378.2V104.9L230.7 279.1C230.8 279.2 231 279.3 231.1 279.4C231.2 279.5 231.4 279.6 231.5 279.7C231.8 279.9 232 280.1 232.3 280.2C232.4 280.3 232.5 280.3 232.6 280.4C233 280.6 233.4 280.8 233.8 281C233.9 281 234 281.1 234.1 281.1C234.4 281.2 234.7 281.4 235.1 281.5C235.2 281.5 235.4 281.6 235.5 281.6C235.8 281.7 236.1 281.8 236.4 281.8C236.5 281.8 236.7 281.9 236.8 281.9C237.1 282 237.5 282 237.8 282.1C237.9 282.1 238 282.1 238.1 282.1C238.5 282.1 239 282.2 239.4 282.2C239.8 282.2 240.3 282.2 240.7 282.1C240.8 282.1 240.9 282.1 241 282.1C241.3 282.1 241.7 282 242 281.9C242.1 281.9 242.3 281.8 242.4 281.8C242.7 281.7 243 281.6 243.3 281.6C243.4 281.6 243.6 281.5 243.7 281.5C244 281.4 244.3 281.3 244.7 281.1C244.8 281.1 244.9 281 245 281C245.4 280.8 245.8 280.6 246.2 280.4C246.3 280.3 246.4 280.3 246.5 280.2C246.8 280 247 279.9 247.3 279.7C247.4 279.6 247.6 279.5 247.7 279.4C247.8 279.3 248 279.2 248.1 279.1L447 109.2V378.2Z" fill="#B44CCF"/>
</svg>
