<svg width="474" height="356" viewBox="0 0 474 356" fill="none" xmlns="http://www.w3.org/2000/svg">
<path d="M437.5 0.300049H36.5C16.4 0.300049 0 16.7001 0 36.8001V319.2C0 339.3 16.4 355.7 36.5 355.7H437.5C457.6 355.7 474 339.3 474 319.2V36.8001C474 16.7001 457.6 0.300049 437.5 0.300049ZM432.2 27.3001L239.5 192.1L46.8 27.3001H432.2ZM447 319.2C447 324.4 442.7 328.7 437.5 328.7H36.5C31.3 328.7 27 324.4 27 319.2V45.9001L230.7 220.1C230.8 220.2 231 220.3 231.1 220.4C231.2 220.5 231.4 220.6 231.5 220.7C231.8 220.9 232 221.1 232.3 221.2C232.4 221.3 232.5 221.3 232.6 221.4C233 221.6 233.4 221.8 233.8 222C233.9 222 234 222.1 234.1 222.1C234.4 222.2 234.7 222.4 235.1 222.5C235.2 222.5 235.4 222.6 235.5 222.6C235.8 222.7 236.1 222.8 236.4 222.8C236.5 222.8 236.7 222.9 236.8 222.9C237.1 223 237.5 223 237.8 223.1C237.9 223.1 238 223.1 238.1 223.1C238.5 223.1 239 223.2 239.4 223.2C239.8 223.2 240.3 223.2 240.7 223.1C240.8 223.1 240.9 223.1 241 223.1C241.3 223.1 241.7 223 242 222.9C242.1 222.9 242.3 222.8 242.4 222.8C242.7 222.7 243 222.6 243.3 222.6C243.4 222.6 243.6 222.5 243.7 222.5C244 222.4 244.3 222.3 244.7 222.1C244.8 222.1 244.9 222 245 222C245.4 221.8 245.8 221.6 246.2 221.4C246.3 221.3 246.4 221.3 246.5 221.2C246.8 221 247 220.9 247.3 220.7C247.4 220.6 247.6 220.5 247.7 220.4C247.8 220.3 248 220.2 248.1 220.1L447 50.2V319.2Z" fill="#B44CCF"/>
</svg>
